# xmcd
#
# Track frame offsets: 
#        150
#        18135
#        35235
#        53586
#        72336
#        91186
#        110375
#        126324
#        144545
#        162572
#        179615
#        202027
#        224519
#        254151
#
# Disc length: 3620 seconds
#
# Revision: 0
# Processed by: cddbd v1.5.2PL0 Copyright (c) Steve Scherf et al.
# Submitted via: ExactAudioCopy v1.0b3
#
DISCID=da0e220e
DTITLE=Demis Roussos - Le Grec
DYEAR=1988
DGENRE=Pop
TTITLE0=Le Grec
TTITLE1=Spleen
TTITLE2=Les Oiseaux De Ma Jeunesse
TTITLE3=The Beauty Of Your Eyes
TTITLE4=Apres La Fin Du Monde
TTITLE5=Prier
TTITLE6=Tout Ce Que Je Cherche Est En Toi
TTITLE7=Comme Le Vent D'Hier
TTITLE8=Futureless Forever
TTITLE9=Quand Je T'aime
TTITLE10=Quand Je T'aime (Remix Club)
TTITLE11=Futureless Forever (Version Longue)
TTITLE12=Prier (Version Longue)
TTITLE13=Break
EXTD=
EXTT0=
EXTT1=
EXTT2=
EXTT3=
EXTT4=
EXTT5=
EXTT6=
EXTT7=
EXTT8=
EXTT9=
EXTT10=
EXTT11=
EXTT12=
EXTT13=
PLAYORDER=
